<svg class="main-svg" xmlns="http://www.w3.org/2000/svg" xmlns:xlink="http://www.w3.org/1999/xlink" width="600" height="400" style="" viewBox="0 0 600 400"><rect x="0" y="0" width="600" height="400" style="fill: rgb(0, 0, 0); fill-opacity: 0;"/><defs id="defs-dbe0ba"><g class="clips"><clipPath id="clipdbe0baxyplot" class="plotclip"><rect width="423" height="220"/></clipPath><clipPath class="axesclip" id="clipdbe0bax"><rect x="80" y="0" width="423" height="400"/></clipPath><clipPath class="axesclip" id="clipdbe0bay"><rect x="0" y="100" width="600" height="220"/></clipPath><clipPath class="axesclip" id="clipdbe0baxy"><rect x="80" y="100" width="423" height="220"/></clipPath></g><g class="gradients"/><g class="patterns"/></defs><g class="bglayer"><rect class="bg" x="80" y="100" width="423" height="220" style="fill: rgb(255, 255, 255); fill-opacity: 1; stroke-width: 0;"/></g><g class="layer-below"><g class="imagelayer"/><g class="shapelayer"/></g><g class="cartesianlayer"><g class="subplot xy"><g class="layer-subplot"><g class="shapelayer"/><g class="imagelayer"/></g><g class="minor-gridlayer"><g class="x"/><g class="y"/></g><g class="gridlayer"><g class="x"/><g class="y"/></g><g class="zerolinelayer"/><g class="layer-between"><g class="shapelayer"/><g class="imagelayer"/></g><path class="xlines-below"/><path class="ylines-below"/><g class="overlines-below"/><g class="xaxislayer-below"/><g class="yaxislayer-below"/><g class="overaxes-below"/><g class="overplot"><g class="xy" transform="translate(80,100)" clip-path="url(#clipdbe0baxyplot)"><g class="scatterlayer mlayer"><g class="trace scatter trace42c46d" style="stroke-miterlimit: 2; opacity: 1;"><g class="fills"/><g class="errorbars"><g class="errorbar"><path class="yerror" d="M20.9,205.25h8m-4,0V205.25m-4,0h8" style="vector-effect: none; stroke-width: 2px; stroke: rgb(7, 115, 177); stroke-opacity: 1;"/></g><g class="errorbar"><path class="yerror" d="M52,131.72h8m-4,0V190.32m-4,0h8" style="vector-effect: none; stroke-width: 2px; stroke: rgb(7, 115, 177); stroke-opacity: 1;"/></g><g class="errorbar"><path class="yerror" d="M83.1,57.24h8m-4,0V86.76m-4,0h8" style="vector-effect: none; stroke-width: 2px; stroke: rgb(7, 115, 177); stroke-opacity: 1;"/></g><g class="errorbar"><path class="yerror" d="M114.2,20.93h8m-4,0V62.56m-4,0h8" style="vector-effect: none; stroke-width: 2px; stroke: rgb(7, 115, 177); stroke-opacity: 1;"/></g><g class="errorbar"><path class="yerror" d="M145.3,29.42h8m-4,0V49.67m-4,0h8" style="vector-effect: none; stroke-width: 2px; stroke: rgb(7, 115, 177); stroke-opacity: 1;"/></g><g class="errorbar"><path class="yerror" d="M176.4,30.16h8m-4,0V62.12m-4,0h8" style="vector-effect: none; stroke-width: 2px; stroke: rgb(7, 115, 177); stroke-opacity: 1;"/></g><g class="errorbar"><path class="yerror" d="M207.5,30.07h8m-4,0V38.81m-4,0h8" style="vector-effect: none; stroke-width: 2px; stroke: rgb(7, 115, 177); stroke-opacity: 1;"/></g><g class="errorbar"><path class="yerror" d="M238.6,30.59h8m-4,0V37.1m-4,0h8" style="vector-effect: none; stroke-width: 2px; stroke: rgb(7, 115, 177); stroke-opacity: 1;"/></g><g class="errorbar"><path class="yerror" d="M269.7,31.9h8m-4,0V34.95m-4,0h8" style="vector-effect: none; stroke-width: 2px; stroke: rgb(7, 115, 177); stroke-opacity: 1;"/></g><g class="errorbar"><path class="yerror" d="M300.8,31.8h8m-4,0V33.2m-4,0h8" style="vector-effect: none; stroke-width: 2px; stroke: rgb(7, 115, 177); stroke-opacity: 1;"/></g><g class="errorbar"><path class="yerror" d="M331.9,32.1h8m-4,0V32.72m-4,0h8" style="vector-effect: none; stroke-width: 2px; stroke: rgb(7, 115, 177); stroke-opacity: 1;"/></g><g class="errorbar"><path class="yerror" d="M363,31.81h8m-4,0V33.62m-4,0h8" style="vector-effect: none; stroke-width: 2px; stroke: rgb(7, 115, 177); stroke-opacity: 1;"/></g><g class="errorbar"><path class="yerror" d="M394.1,32.18h8m-4,0V32.44m-4,0h8" style="vector-effect: none; stroke-width: 2px; stroke: rgb(7, 115, 177); stroke-opacity: 1;"/></g></g><g class="lines"><path class="js-line" d="M24.9,205.25L56,161.02L87.1,72L118.2,41.74L149.3,39.54L180.4,46.14L211.5,34.44L335.9,32.41L367,32.71L398.1,32.31" style="vector-effect: none; fill: none; stroke: rgb(7, 115, 177); stroke-opacity: 1; stroke-width: 2px; opacity: 1;"/></g><g class="points"><path class="point" transform="translate(24.9,205.25)" d="M3,0A3,3 0 1,1 0,-3A3,3 0 0,1 3,0Z" style="opacity: 1; stroke-width: 0px; fill: rgb(7, 115, 177); fill-opacity: 1;"/><path class="point" transform="translate(56,161.02)" d="M3,0A3,3 0 1,1 0,-3A3,3 0 0,1 3,0Z" style="opacity: 1; stroke-width: 0px; fill: rgb(7, 115, 177); fill-opacity: 1;"/><path class="point" transform="translate(87.1,72)" d="M3,0A3,3 0 1,1 0,-3A3,3 0 0,1 3,0Z" style="opacity: 1; stroke-width: 0px; fill: rgb(7, 115, 177); fill-opacity: 1;"/><path class="point" transform="translate(118.2,41.74)" d="M3,0A3,3 0 1,1 0,-3A3,3 0 0,1 3,0Z" style="opacity: 1; stroke-width: 0px; fill: rgb(7, 115, 177); fill-opacity: 1;"/><path class="point" transform="translate(149.3,39.54)" d="M3,0A3,3 0 1,1 0,-3A3,3 0 0,1 3,0Z" style="opacity: 1; stroke-width: 0px; fill: rgb(7, 115, 177); fill-opacity: 1;"/><path class="point" transform="translate(180.4,46.14)" d="M3,0A3,3 0 1,1 0,-3A3,3 0 0,1 3,0Z" style="opacity: 1; stroke-width: 0px; fill: rgb(7, 115, 177); fill-opacity: 1;"/><path class="point" transform="translate(211.5,34.44)" d="M3,0A3,3 0 1,1 0,-3A3,3 0 0,1 3,0Z" style="opacity: 1; stroke-width: 0px; fill: rgb(7, 115, 177); fill-opacity: 1;"/><path class="point" transform="translate(242.6,33.85)" d="M3,0A3,3 0 1,1 0,-3A3,3 0 0,1 3,0Z" style="opacity: 1; stroke-width: 0px; fill: rgb(7, 115, 177); fill-opacity: 1;"/><path class="point" transform="translate(273.7,33.42)" d="M3,0A3,3 0 1,1 0,-3A3,3 0 0,1 3,0Z" style="opacity: 1; stroke-width: 0px; fill: rgb(7, 115, 177); fill-opacity: 1;"/><path class="point" transform="translate(304.8,32.5)" d="M3,0A3,3 0 1,1 0,-3A3,3 0 0,1 3,0Z" style="opacity: 1; stroke-width: 0px; fill: rgb(7, 115, 177); fill-opacity: 1;"/><path class="point" transform="translate(335.9,32.41)" d="M3,0A3,3 0 1,1 0,-3A3,3 0 0,1 3,0Z" style="opacity: 1; stroke-width: 0px; fill: rgb(7, 115, 177); fill-opacity: 1;"/><path class="point" transform="translate(367,32.71)" d="M3,0A3,3 0 1,1 0,-3A3,3 0 0,1 3,0Z" style="opacity: 1; stroke-width: 0px; fill: rgb(7, 115, 177); fill-opacity: 1;"/><path class="point" transform="translate(398.1,32.31)" d="M3,0A3,3 0 1,1 0,-3A3,3 0 0,1 3,0Z" style="opacity: 1; stroke-width: 0px; fill: rgb(7, 115, 177); fill-opacity: 1;"/></g><g class="text"/></g><g class="trace scatter trace807137" style="stroke-miterlimit: 2; opacity: 1;"><g class="fills"/><g class="errorbars"><g class="errorbar"><path class="yerror" d="M20.9,205.25h8m-4,0V205.25m-4,0h8" style="vector-effect: none; stroke-width: 2px; stroke: rgb(231, 159, 39); stroke-opacity: 1;"/></g><g class="errorbar"><path class="yerror" d="M52,195.92h8m-4,0V205.24m-4,0h8" style="vector-effect: none; stroke-width: 2px; stroke: rgb(231, 159, 39); stroke-opacity: 1;"/></g><g class="errorbar"><path class="yerror" d="M83.1,70.9h8m-4,0V153.39m-4,0h8" style="vector-effect: none; stroke-width: 2px; stroke: rgb(231, 159, 39); stroke-opacity: 1;"/></g><g class="errorbar"><path class="yerror" d="M114.2,38.82h8m-4,0V101.94m-4,0h8" style="vector-effect: none; stroke-width: 2px; stroke: rgb(231, 159, 39); stroke-opacity: 1;"/></g><g class="errorbar"><path class="yerror" d="M145.3,36.27h8m-4,0V70.89m-4,0h8" style="vector-effect: none; stroke-width: 2px; stroke: rgb(231, 159, 39); stroke-opacity: 1;"/></g><g class="errorbar"><path class="yerror" d="M176.4,40.27h8m-4,0V62.19m-4,0h8" style="vector-effect: none; stroke-width: 2px; stroke: rgb(231, 159, 39); stroke-opacity: 1;"/></g><g class="errorbar"><path class="yerror" d="M207.5,24.49h8m-4,0V59.12m-4,0h8" style="vector-effect: none; stroke-width: 2px; stroke: rgb(231, 159, 39); stroke-opacity: 1;"/></g><g class="errorbar"><path class="yerror" d="M238.6,31.26h8m-4,0V44.08m-4,0h8" style="vector-effect: none; stroke-width: 2px; stroke: rgb(231, 159, 39); stroke-opacity: 1;"/></g><g class="errorbar"><path class="yerror" d="M269.7,27.97h8m-4,0V42.88m-4,0h8" style="vector-effect: none; stroke-width: 2px; stroke: rgb(231, 159, 39); stroke-opacity: 1;"/></g><g class="errorbar"><path class="yerror" d="M300.8,26.49h8m-4,0V42.86m-4,0h8" style="vector-effect: none; stroke-width: 2px; stroke: rgb(231, 159, 39); stroke-opacity: 1;"/></g><g class="errorbar"><path class="yerror" d="M331.9,31.17h8m-4,0V35.51m-4,0h8" style="vector-effect: none; stroke-width: 2px; stroke: rgb(231, 159, 39); stroke-opacity: 1;"/></g><g class="errorbar"><path class="yerror" d="M363,24.85h8m-4,0V47.64m-4,0h8" style="vector-effect: none; stroke-width: 2px; stroke: rgb(231, 159, 39); stroke-opacity: 1;"/></g><g class="errorbar"><path class="yerror" d="M394.1,31.15h8m-4,0V35.61m-4,0h8" style="vector-effect: none; stroke-width: 2px; stroke: rgb(231, 159, 39); stroke-opacity: 1;"/></g></g><g class="lines"><path class="js-line" d="M24.9,205.25L56,200.58L87.1,112.15L118.2,70.38L149.3,53.58L180.4,51.23L211.5,41.8L242.6,37.67L273.7,35.43L335.9,33.34L367,36.24L398.1,33.38" style="vector-effect: none; fill: none; stroke: rgb(231, 159, 39); stroke-opacity: 1; stroke-width: 2px; opacity: 1;"/></g><g class="points"><path class="point" transform="translate(24.9,205.25)" d="M3,0A3,3 0 1,1 0,-3A3,3 0 0,1 3,0Z" style="opacity: 1; stroke-width: 0px; fill: rgb(231, 159, 39); fill-opacity: 1;"/><path class="point" transform="translate(56,200.58)" d="M3,0A3,3 0 1,1 0,-3A3,3 0 0,1 3,0Z" style="opacity: 1; stroke-width: 0px; fill: rgb(231, 159, 39); fill-opacity: 1;"/><path class="point" transform="translate(87.1,112.15)" d="M3,0A3,3 0 1,1 0,-3A3,3 0 0,1 3,0Z" style="opacity: 1; stroke-width: 0px; fill: rgb(231, 159, 39); fill-opacity: 1;"/><path class="point" transform="translate(118.2,70.38)" d="M3,0A3,3 0 1,1 0,-3A3,3 0 0,1 3,0Z" style="opacity: 1; stroke-width: 0px; fill: rgb(231, 159, 39); fill-opacity: 1;"/><path class="point" transform="translate(149.3,53.58)" d="M3,0A3,3 0 1,1 0,-3A3,3 0 0,1 3,0Z" style="opacity: 1; stroke-width: 0px; fill: rgb(231, 159, 39); fill-opacity: 1;"/><path class="point" transform="translate(180.4,51.23)" d="M3,0A3,3 0 1,1 0,-3A3,3 0 0,1 3,0Z" style="opacity: 1; stroke-width: 0px; fill: rgb(231, 159, 39); fill-opacity: 1;"/><path class="point" transform="translate(211.5,41.8)" d="M3,0A3,3 0 1,1 0,-3A3,3 0 0,1 3,0Z" style="opacity: 1; stroke-width: 0px; fill: rgb(231, 159, 39); fill-opacity: 1;"/><path class="point" transform="translate(242.6,37.67)" d="M3,0A3,3 0 1,1 0,-3A3,3 0 0,1 3,0Z" style="opacity: 1; stroke-width: 0px; fill: rgb(231, 159, 39); fill-opacity: 1;"/><path class="point" transform="translate(273.7,35.43)" d="M3,0A3,3 0 1,1 0,-3A3,3 0 0,1 3,0Z" style="opacity: 1; stroke-width: 0px; fill: rgb(231, 159, 39); fill-opacity: 1;"/><path class="point" transform="translate(304.8,34.67)" d="M3,0A3,3 0 1,1 0,-3A3,3 0 0,1 3,0Z" style="opacity: 1; stroke-width: 0px; fill: rgb(231, 159, 39); fill-opacity: 1;"/><path class="point" transform="translate(335.9,33.34)" d="M3,0A3,3 0 1,1 0,-3A3,3 0 0,1 3,0Z" style="opacity: 1; stroke-width: 0px; fill: rgb(231, 159, 39); fill-opacity: 1;"/><path class="point" transform="translate(367,36.24)" d="M3,0A3,3 0 1,1 0,-3A3,3 0 0,1 3,0Z" style="opacity: 1; stroke-width: 0px; fill: rgb(231, 159, 39); fill-opacity: 1;"/><path class="point" transform="translate(398.1,33.38)" d="M3,0A3,3 0 1,1 0,-3A3,3 0 0,1 3,0Z" style="opacity: 1; stroke-width: 0px; fill: rgb(231, 159, 39); fill-opacity: 1;"/></g><g class="text"/></g><g class="trace scatter trace40b64b" style="stroke-miterlimit: 2; opacity: 1;"><g class="fills"/><g class="errorbars"><g class="errorbar"><path class="yerror" d="M20.9,205.25h8m-4,0V205.25m-4,0h8" style="vector-effect: none; stroke-width: 2px; stroke: rgb(162, 55, 104); stroke-opacity: 1;"/></g><g class="errorbar"><path class="yerror" d="M52,199.08h8m-4,0V206.62m-4,0h8" style="vector-effect: none; stroke-width: 2px; stroke: rgb(162, 55, 104); stroke-opacity: 1;"/></g><g class="errorbar"><path class="yerror" d="M83.1,28.74h8m-4,0V104.01m-4,0h8" style="vector-effect: none; stroke-width: 2px; stroke: rgb(162, 55, 104); stroke-opacity: 1;"/></g><g class="errorbar"><path class="yerror" d="M114.2,17.31h8m-4,0V92.35m-4,0h8" style="vector-effect: none; stroke-width: 2px; stroke: rgb(162, 55, 104); stroke-opacity: 1;"/></g><g class="errorbar"><path class="yerror" d="M145.3,11h8m-4,0V81m-4,0h8" style="vector-effect: none; stroke-width: 2px; stroke: rgb(162, 55, 104); stroke-opacity: 1;"/></g><g class="errorbar"><path class="yerror" d="M176.4,28.09h8m-4,0V48.96m-4,0h8" style="vector-effect: none; stroke-width: 2px; stroke: rgb(162, 55, 104); stroke-opacity: 1;"/></g><g class="errorbar"><path class="yerror" d="M207.5,31.21h8m-4,0V34.65m-4,0h8" style="vector-effect: none; stroke-width: 2px; stroke: rgb(162, 55, 104); stroke-opacity: 1;"/></g><g class="errorbar"><path class="yerror" d="M238.6,29.83h8m-4,0V37.03m-4,0h8" style="vector-effect: none; stroke-width: 2px; stroke: rgb(162, 55, 104); stroke-opacity: 1;"/></g><g class="errorbar"><path class="yerror" d="M269.7,27.73h8m-4,0V44.5m-4,0h8" style="vector-effect: none; stroke-width: 2px; stroke: rgb(162, 55, 104); stroke-opacity: 1;"/></g><g class="errorbar"><path class="yerror" d="M300.8,30.17h8m-4,0V36.98m-4,0h8" style="vector-effect: none; stroke-width: 2px; stroke: rgb(162, 55, 104); stroke-opacity: 1;"/></g><g class="errorbar"><path class="yerror" d="M331.9,31.79h8m-4,0V34.2m-4,0h8" style="vector-effect: none; stroke-width: 2px; stroke: rgb(162, 55, 104); stroke-opacity: 1;"/></g><g class="errorbar"><path class="yerror" d="M363,31.24h8m-4,0V34.27m-4,0h8" style="vector-effect: none; stroke-width: 2px; stroke: rgb(162, 55, 104); stroke-opacity: 1;"/></g><g class="errorbar"><path class="yerror" d="M394.1,32h8m-4,0V33.03m-4,0h8" style="vector-effect: none; stroke-width: 2px; stroke: rgb(162, 55, 104); stroke-opacity: 1;"/></g></g><g class="lines"><path class="js-line" d="M24.9,205.25L56,202.85L87.1,66.37L118.2,54.83L149.3,46L180.4,38.53L211.5,32.93L242.6,33.43L273.7,36.12L304.8,33.57L335.9,33L398.1,32.52" style="vector-effect: none; fill: none; stroke: rgb(162, 55, 104); stroke-opacity: 1; stroke-width: 2px; opacity: 1;"/></g><g class="points"><path class="point" transform="translate(24.9,205.25)" d="M3,0A3,3 0 1,1 0,-3A3,3 0 0,1 3,0Z" style="opacity: 1; stroke-width: 0px; fill: rgb(162, 55, 104); fill-opacity: 1;"/><path class="point" transform="translate(56,202.85)" d="M3,0A3,3 0 1,1 0,-3A3,3 0 0,1 3,0Z" style="opacity: 1; stroke-width: 0px; fill: rgb(162, 55, 104); fill-opacity: 1;"/><path class="point" transform="translate(87.1,66.37)" d="M3,0A3,3 0 1,1 0,-3A3,3 0 0,1 3,0Z" style="opacity: 1; stroke-width: 0px; fill: rgb(162, 55, 104); fill-opacity: 1;"/><path class="point" transform="translate(118.2,54.83)" d="M3,0A3,3 0 1,1 0,-3A3,3 0 0,1 3,0Z" style="opacity: 1; stroke-width: 0px; fill: rgb(162, 55, 104); fill-opacity: 1;"/><path class="point" transform="translate(149.3,46)" d="M3,0A3,3 0 1,1 0,-3A3,3 0 0,1 3,0Z" style="opacity: 1; stroke-width: 0px; fill: rgb(162, 55, 104); fill-opacity: 1;"/><path class="point" transform="translate(180.4,38.53)" d="M3,0A3,3 0 1,1 0,-3A3,3 0 0,1 3,0Z" style="opacity: 1; stroke-width: 0px; fill: rgb(162, 55, 104); fill-opacity: 1;"/><path class="point" transform="translate(211.5,32.93)" d="M3,0A3,3 0 1,1 0,-3A3,3 0 0,1 3,0Z" style="opacity: 1; stroke-width: 0px; fill: rgb(162, 55, 104); fill-opacity: 1;"/><path class="point" transform="translate(242.6,33.43)" d="M3,0A3,3 0 1,1 0,-3A3,3 0 0,1 3,0Z" style="opacity: 1; stroke-width: 0px; fill: rgb(162, 55, 104); fill-opacity: 1;"/><path class="point" transform="translate(273.7,36.12)" d="M3,0A3,3 0 1,1 0,-3A3,3 0 0,1 3,0Z" style="opacity: 1; stroke-width: 0px; fill: rgb(162, 55, 104); fill-opacity: 1;"/><path class="point" transform="translate(304.8,33.57)" d="M3,0A3,3 0 1,1 0,-3A3,3 0 0,1 3,0Z" style="opacity: 1; stroke-width: 0px; fill: rgb(162, 55, 104); fill-opacity: 1;"/><path class="point" transform="translate(335.9,33)" d="M3,0A3,3 0 1,1 0,-3A3,3 0 0,1 3,0Z" style="opacity: 1; stroke-width: 0px; fill: rgb(162, 55, 104); fill-opacity: 1;"/><path class="point" transform="translate(367,32.76)" d="M3,0A3,3 0 1,1 0,-3A3,3 0 0,1 3,0Z" style="opacity: 1; stroke-width: 0px; fill: rgb(162, 55, 104); fill-opacity: 1;"/><path class="point" transform="translate(398.1,32.52)" d="M3,0A3,3 0 1,1 0,-3A3,3 0 0,1 3,0Z" style="opacity: 1; stroke-width: 0px; fill: rgb(162, 55, 104); fill-opacity: 1;"/></g><g class="text"/></g></g></g></g><g class="zerolinelayer-above"/><path class="xlines-above crisp" d="M79,320.5H503" style="fill: none; stroke-width: 1px; stroke: rgb(36, 36, 36); stroke-opacity: 1;"/><path class="ylines-above crisp" d="M79.5,100V320" style="fill: none; stroke-width: 1px; stroke: rgb(36, 36, 36); stroke-opacity: 1;"/><g class="overlines-above"/><g class="xaxislayer-above"><path class="xtick ticks crisp" d="M0,321v5" transform="translate(104.9,0)" style="stroke: rgb(68, 68, 68); stroke-opacity: 1; stroke-width: 1px;"/><path class="xtick ticks crisp" d="M0,321v5" transform="translate(260.4,0)" style="stroke: rgb(68, 68, 68); stroke-opacity: 1; stroke-width: 1px;"/><path class="xtick ticks crisp" d="M0,321v5" transform="translate(415.9,0)" style="stroke: rgb(68, 68, 68); stroke-opacity: 1; stroke-width: 1px;"/><g class="xtick"><text text-anchor="middle" x="0" y="340.4" transform="translate(104.9,0)" style="font-family: 'Open Sans', verdana, arial, sans-serif; font-size: 12px; fill: rgb(36, 36, 36); fill-opacity: 1; white-space: pre;">0</text></g><g class="xtick"><text text-anchor="middle" x="0" y="340.4" style="font-family: 'Open Sans', verdana, arial, sans-serif; font-size: 12px; fill: rgb(36, 36, 36); fill-opacity: 1; white-space: pre;" transform="translate(260.4,0)">5</text></g><g class="xtick"><text text-anchor="middle" x="0" y="340.4" style="font-family: 'Open Sans', verdana, arial, sans-serif; font-size: 12px; fill: rgb(36, 36, 36); fill-opacity: 1; white-space: pre;" transform="translate(415.9,0)">10</text></g></g><g class="yaxislayer-above"><path class="ytick ticks crisp" d="M79,0h-5" transform="translate(0,305.25)" style="stroke: rgb(68, 68, 68); stroke-opacity: 1; stroke-width: 1px;"/><path class="ytick ticks crisp" d="M79,0h-5" transform="translate(0,270.65)" style="stroke: rgb(68, 68, 68); stroke-opacity: 1; stroke-width: 1px;"/><path class="ytick ticks crisp" d="M79,0h-5" transform="translate(0,236.06)" style="stroke: rgb(68, 68, 68); stroke-opacity: 1; stroke-width: 1px;"/><path class="ytick ticks crisp" d="M79,0h-5" transform="translate(0,201.45999999999998)" style="stroke: rgb(68, 68, 68); stroke-opacity: 1; stroke-width: 1px;"/><path class="ytick ticks crisp" d="M79,0h-5" transform="translate(0,166.86)" style="stroke: rgb(68, 68, 68); stroke-opacity: 1; stroke-width: 1px;"/><path class="ytick ticks crisp" d="M79,0h-5" transform="translate(0,132.27)" style="stroke: rgb(68, 68, 68); stroke-opacity: 1; stroke-width: 1px;"/><g class="ytick"><text text-anchor="end" x="71.6" y="4.199999999999999" transform="translate(0,305.25)" style="font-family: 'Open Sans', verdana, arial, sans-serif; font-size: 12px; fill: rgb(36, 36, 36); fill-opacity: 1; white-space: pre;">0</text></g><g class="ytick"><text text-anchor="end" x="71.6" y="4.199999999999999" style="font-family: 'Open Sans', verdana, arial, sans-serif; font-size: 12px; fill: rgb(36, 36, 36); fill-opacity: 1; white-space: pre;" transform="translate(0,270.65)">0.2</text></g><g class="ytick"><text text-anchor="end" x="71.6" y="4.199999999999999" style="font-family: 'Open Sans', verdana, arial, sans-serif; font-size: 12px; fill: rgb(36, 36, 36); fill-opacity: 1; white-space: pre;" transform="translate(0,236.06)">0.4</text></g><g class="ytick"><text text-anchor="end" x="71.6" y="4.199999999999999" style="font-family: 'Open Sans', verdana, arial, sans-serif; font-size: 12px; fill: rgb(36, 36, 36); fill-opacity: 1; white-space: pre;" transform="translate(0,201.45999999999998)">0.6</text></g><g class="ytick"><text text-anchor="end" x="71.6" y="4.199999999999999" style="font-family: 'Open Sans', verdana, arial, sans-serif; font-size: 12px; fill: rgb(36, 36, 36); fill-opacity: 1; white-space: pre;" transform="translate(0,166.86)">0.8</text></g><g class="ytick"><text text-anchor="end" x="71.6" y="4.199999999999999" style="font-family: 'Open Sans', verdana, arial, sans-serif; font-size: 12px; fill: rgb(36, 36, 36); fill-opacity: 1; white-space: pre;" transform="translate(0,132.27)">1</text></g></g><g class="overaxes-above"/></g></g><g class="polarlayer"/><g class="smithlayer"/><g class="ternarylayer"/><g class="geolayer"/><g class="funnelarealayer"/><g class="pielayer"/><g class="iciclelayer"/><g class="treemaplayer"/><g class="sunburstlayer"/><g class="glimages"/><defs id="topdefs-dbe0ba"><g class="clips"/><clipPath id="legenddbe0ba"><rect width="77" height="67" x="0" y="0"/></clipPath></defs><g class="layer-above"><g class="imagelayer"/><g class="shapelayer"/></g><g class="infolayer"><g class="legend" pointer-events="all" transform="translate(511.46,100)"><rect class="bg" shape-rendering="crispEdges" style="stroke: rgb(68, 68, 68); stroke-opacity: 1; fill: rgb(0, 0, 0); fill-opacity: 0; stroke-width: 0px;" width="77" height="67" x="0" y="0"/><g class="scrollbox" transform="" clip-path="url(#legenddbe0ba)"><g class="groups"><g class="traces" transform="translate(0,14.5)" style="opacity: 1;"><text class="legendtext" text-anchor="start" x="40" y="4.680000000000001" style="font-family: 'Open Sans', verdana, arial, sans-serif; font-size: 12px; fill: rgb(36, 36, 36); fill-opacity: 1; white-space: pre;">flat</text><g class="layers" style="opacity: 1;"><g class="legendfill"/><g class="legendlines"><path class="js-line" d="M5,0h30" style="fill: none; stroke: rgb(7, 115, 177); stroke-opacity: 1; stroke-width: 2px;"/></g><g class="legendsymbols"><g class="legendpoints"><path class="scatterpts" transform="translate(20,0)" d="M3,0A3,3 0 1,1 0,-3A3,3 0 0,1 3,0Z" style="opacity: 1; stroke-width: 0px; fill: rgb(7, 115, 177); fill-opacity: 1;"/></g></g></g><rect class="legendtoggle" x="0" y="-9.5" width="71.71875" height="19" style="fill: rgb(0, 0, 0); fill-opacity: 0;"/></g><g class="traces" transform="translate(0,33.5)" style="opacity: 1;"><text class="legendtext" text-anchor="start" x="40" y="4.680000000000001" style="font-family: 'Open Sans', verdana, arial, sans-serif; font-size: 12px; fill: rgb(36, 36, 36); fill-opacity: 1; white-space: pre;">small</text><g class="layers" style="opacity: 1;"><g class="legendfill"/><g class="legendlines"><path class="js-line" d="M5,0h30" style="fill: none; stroke: rgb(231, 159, 39); stroke-opacity: 1; stroke-width: 2px;"/></g><g class="legendsymbols"><g class="legendpoints"><path class="scatterpts" transform="translate(20,0)" d="M3,0A3,3 0 1,1 0,-3A3,3 0 0,1 3,0Z" style="opacity: 1; stroke-width: 0px; fill: rgb(231, 159, 39); fill-opacity: 1;"/></g></g></g><rect class="legendtoggle" x="0" y="-9.5" width="71.71875" height="19" style="fill: rgb(0, 0, 0); fill-opacity: 0;"/></g><g class="traces" transform="translate(0,52.5)" style="opacity: 1;"><text class="legendtext" text-anchor="start" x="40" y="4.680000000000001" style="font-family: 'Open Sans', verdana, arial, sans-serif; font-size: 12px; fill: rgb(36, 36, 36); fill-opacity: 1; white-space: pre;">large</text><g class="layers" style="opacity: 1;"><g class="legendfill"/><g class="legendlines"><path class="js-line" d="M5,0h30" style="fill: none; stroke: rgb(162, 55, 104); stroke-opacity: 1; stroke-width: 2px;"/></g><g class="legendsymbols"><g class="legendpoints"><path class="scatterpts" transform="translate(20,0)" d="M3,0A3,3 0 1,1 0,-3A3,3 0 0,1 3,0Z" style="opacity: 1; stroke-width: 0px; fill: rgb(162, 55, 104); fill-opacity: 1;"/></g></g></g><rect class="legendtoggle" x="0" y="-9.5" width="71.71875" height="19" style="fill: rgb(0, 0, 0); fill-opacity: 0;"/></g></g></g><rect class="scrollbar" rx="20" ry="3" width="0" height="0" style="fill: rgb(128, 139, 164); fill-opacity: 1;" x="0" y="0"/></g><g class="g-gtitle"/><g class="g-xtitle"><text class="xtitle" x="291.5" y="367.700390625" text-anchor="middle" style="opacity: 1; font-family: 'Open Sans', verdana, arial, sans-serif; font-size: 14px; fill: rgb(36, 36, 36); fill-opacity: 1; white-space: pre;">weeks</text></g><g class="g-ytitle"><text class="ytitle" transform="rotate(-90,32.574609375,210)" x="32.574609375" y="210" text-anchor="middle" style="opacity: 1; font-family: 'Open Sans', verdana, arial, sans-serif; font-size: 14px; fill: rgb(36, 36, 36); fill-opacity: 1; white-space: pre;">fraction covered</text></g></g></svg>